<?xml version="1.0" encoding="utf-8"?>
<!-- Generator: Adobe Illustrator 27.9.0, SVG Export Plug-In . SVG Version: 6.00 Build 0)  -->
<svg version="1.1" id="Layer_1" xmlns="http://www.w3.org/2000/svg" xmlns:xlink="http://www.w3.org/1999/xlink" x="0px" y="0px"
	 viewBox="0 0 850.4 850.4" style="enable-background:new 0 0 850.4 850.4;" xml:space="preserve">
<style type="text/css">
	.st0{display:none;}
	.st1{display:inline;fill:none;stroke:#B1965A;stroke-width:10;stroke-miterlimit:10;}
	.st2{display:none;fill:none;stroke:#B1965A;stroke-width:10;stroke-miterlimit:10;}
	.st3{fill:#FFCC00;}
</style>
<g class="st0">
	<path class="st1" d="M532.2,443.9H323.8c-4.7,0-8.1-3.6-7.1-7.4c3.4-12.9,6.8-25.8,10.2-38.8c0.7-2.8,3.7-4.8,7.1-4.8
		c62.6,0,125.3,0,187.9,0c3.4,0,6.4,2,7.1,4.8l10.4,38.8C540.3,440.3,536.9,443.9,532.2,443.9z"/>
	<path class="st1" d="M531.3,373.9H322.9c-4.7,0-8.1-3.6-7.1-7.4c3.4-12.9,6.8-25.8,10.2-38.8c0.7-2.8,3.7-4.8,7.1-4.8
		c62.6,0,125.3,0,187.9,0c3.4,0,6.4,2,7.1,4.8l10.4,38.8C539.5,370.2,536,373.9,531.3,373.9z"/>
	<path class="st1" d="M529.8,303.8H321.4c-4.7,0-8.1-3.6-7.1-7.4c3.4-12.9,6.8-25.8,10.2-38.8c0.7-2.8,3.7-4.8,7.1-4.8
		c62.6,0,125.3,0,187.9,0c3.4,0,6.4,2,7.1,4.8l10.4,38.8C538,300.2,534.5,303.8,529.8,303.8z"/>
</g>
<path class="st2" d="M491.5,310.2H357.2c-3,0-5.2-2.9-4.6-6c2.2-10.5,4.4-20.9,6.6-31.4c0.5-2.3,2.4-3.9,4.6-3.9
	c40.4,0,80.8,0,121.1,0c2.2,0,4.1,1.6,4.6,3.9l6.7,31.4C496.8,307.3,494.6,310.2,491.5,310.2z"/>
<path class="st2" d="M441,413.4l-32.5,4.1c-2,0.2-3.8-1.4-3.8-3.5v-88c0-2.2,1.8-3.8,3.8-3.5c10.8,1.5,21.7,3,32.5,4.5
	c1.7,0.2,3,1.8,3,3.5v79.4C444,411.7,442.7,413.2,441,413.4z"/>
<circle class="st2" cx="424.4" cy="333.8" r="122.9"/>
<path class="st3" d="M486.2,407.8h46c1,0,1.8-1,1.6-2.1l-2.3-11c-0.2-0.8-0.8-1.4-1.6-1.4c-13.8,0-27.6,0-41.4,0
	c-0.8,0-1.4,0.6-1.6,1.4c-0.8,3.7-1.5,7.3-2.2,11C484.4,406.8,485.2,407.8,486.2,407.8z"/>
<path class="st3" d="M309.2,405.9l-2.4-11c-0.2-0.8-0.8-1.4-1.6-1.4c-14.2,0-28.4,0-42.5,0c-0.8,0-1.4,0.6-1.6,1.4
	c-0.8,3.7-1.5,7.3-2.3,11c-0.2,1.1,0.6,2.1,1.6,2.1h47.2C308.7,408,309.5,407,309.2,405.9z"/>
<path class="st3" d="M486.2,426.3h46c1,0,1.8-1,1.6-2.1l-2.3-11c-0.2-0.8-0.8-1.4-1.6-1.4c-13.8,0-27.6,0-41.4,0
	c-0.8,0-1.4,0.6-1.6,1.4c-0.8,3.7-1.5,7.3-2.2,11C484.4,425.3,485.2,426.3,486.2,426.3z"/>
<path class="st3" d="M486.2,445.2h46c1,0,1.8-1,1.6-2.1l-2.3-11c-0.2-0.8-0.8-1.4-1.6-1.4c-13.8,0-27.6,0-41.4,0
	c-0.8,0-1.4,0.6-1.6,1.4c-0.8,3.7-1.5,7.3-2.2,11C484.4,444.2,485.2,445.2,486.2,445.2z"/>
<path class="st3" d="M290.9,415.1c0-0.6-0.4-1.2-1-1.2c-3.8-0.5-7.6-1.1-11.4-1.6c-0.7-0.1-1.4,0.5-1.4,1.2v30.9
	c0,0.8,0.6,1.3,1.3,1.2l11.4-1.4c0.6-0.1,1-0.6,1-1.2L290.9,415.1L290.9,415.1z"/>
<rect x="416.9" y="393.5" class="st3" width="13.5" height="52.2"/>
<path class="st3" d="M452.5,445.5h15.1L445.8,424c-0.3-0.4-1.2-1.7-1.2-3.7s0.9-3.4,1.2-3.8c6.6-7.7,13.2-15.5,19.8-23.2
	c-4.4,0-8.7,0-13.1,0c-6.6,7.7-13.3,15.5-19.9,23.2c-0.4,0.6-1.2,2.1-1.3,4.1c0,2.4,1,4.1,1.4,4.7
	C439.3,432.1,445.9,438.8,452.5,445.5z"/>
<rect x="679.9" y="393.5" class="st3" width="13.5" height="52.2"/>
<rect x="639.7" y="393.5" class="st3" width="13.5" height="52.2"/>
<path class="st3" d="M786.5,393.5h-19.1c-9.7,0-17.6,8.5-17.6,19v13.9c0,10.5,7.9,19,17.6,19h19.1c9.7,0,17.6-8.5,17.6-19v-13.9
	C804.1,402,796.2,393.5,786.5,393.5z M791.3,426.5c0,2.9-2.1,5.2-4.8,5.2h-19.2c-2.6,0-4.8-2.3-4.8-5.2v-13.8c0-2.9,2.1-5.2,4.8-5.2
	h19.2c2.6,0,4.8,2.3,4.8,5.2V426.5z"/>
<path class="st3" d="M372.6,393.6h-19.1c-9.7,0-17.6,8.5-17.6,19v13.9c0,10.5,7.9,19,17.6,19h19.1c9.7,0,17.6-8.5,17.6-19v-13.9
	C390.2,402.1,382.4,393.6,372.6,393.6z M377.4,426.5c0,2.9-2.1,5.2-4.8,5.2h-19.2c-2.6,0-4.8-2.3-4.8-5.2v-13.8
	c0-2.9,2.1-5.2,4.8-5.2h19.2c2.6,0,4.8,2.3,4.8,5.2V426.5z"/>
<path class="st3" d="M707.5,420.5c0-2,0.9-3.4,1.2-3.8c6.6-7.7,13.2-15.5,19.8-23.2c-4.4,0-8.7,0-13.1,0
	c-6.6,7.7-13.3,15.5-19.9,23.2c-0.4,0.6-1.2,2.1-1.3,4.1c0,2.4,1,4.1,1.4,4.7c6.6,6.7,13.2,13.4,19.8,20.2h15.1l-21.8-21.5
	C708.4,423.7,707.5,422.4,707.5,420.5z"/>
<path class="st3" d="M598.5,393.5h-26.9c-7.8,0-14.2,6.9-14.2,15.4v36.8H571v-30c0-4.4,3.3-8,7.4-8c4.5,0,9,0,13.4,0
	c4.2,0,7.5,3.6,7.5,8.1v29.9h13.2v-37C612.6,400.3,606.3,393.5,598.5,393.5z"/>
<path class="st3" d="M278,472.1c-0.9-0.5-2.5-0.9-4.6-1.2c-1.3-0.2-2.3-0.4-2.9-0.7c-1-0.5-1.6-1.2-1.6-2.2c0-0.8,0.4-1.5,1.1-2
	c0.9-0.6,2-0.9,3.5-0.9h5.8v-2.9h-5.8c-2,0-3.7,0.5-5,1.4c-1.5,1.1-2.3,2.5-2.3,4.4c0,2.2,0.8,3.7,2.3,4.6c0.9,0.5,2.5,0.9,4.6,1.2
	c1.3,0.2,2.3,0.4,2.9,0.7c1,0.5,1.6,1.2,1.6,2.2c0,0.8-0.4,1.5-1.1,2c-0.9,0.6-1.9,0.9-3.2,0.9h-7v2.9h7c1.8,0,3.4-0.5,4.8-1.4
	c1.5-1.1,2.3-2.5,2.3-4.4C280.3,474.5,279.5,473,278,472.1z"/>
<path class="st3" d="M308.8,462.9c-0.6-0.6-1.3-0.9-2.2-0.9c-0.8,0-1.5,0.3-2.2,0.8c-0.6,0.5-1,1.2-1.1,2.1l-2.4,12.5
	c0,0.2-0.1,0.3-0.3,0.3c-0.1,0-0.2-0.1-0.3-0.3l-2.4-12.5c-0.2-0.9-0.5-1.5-1.1-2.1s-1.3-0.9-2.1-0.9c-0.9,0-1.6,0.3-2.2,0.9
	s-0.9,1.3-1,2.2l-0.9,17.3h2.8l0.8-16.9c0-0.4,0.1-0.6,0.4-0.6c0.2,0,0.4,0.2,0.5,0.6l2.4,12.8c0.1,0.7,0.5,1.3,1.2,1.7
	c0.5,0.3,1.1,0.5,1.8,0.5c0.7,0,1.3-0.2,1.9-0.5c0.6-0.4,1-1,1.2-1.7l2.4-12.8c0.1-0.4,0.2-0.6,0.5-0.6c0.2,0,0.3,0.2,0.3,0.6
	l0.8,17h2.8l-0.9-17.3C309.6,464.2,309.4,463.5,308.8,462.9z"/>
<path class="st3" d="M331.1,462.9c-0.6-0.6-1.4-0.8-2.2-0.8c-0.8,0-1.5,0.3-2.2,0.8c-0.6,0.5-1,1.2-1.3,2l-5.2,17.5h3l5-16.6
	c0.2-0.5,0.4-0.8,0.8-0.8c0.3,0,0.6,0.3,0.8,0.8l2.6,8.7h-5.5l-0.8,2.7h7l1.6,5.3h3l-5.3-17.5C332.1,464.1,331.7,463.4,331.1,462.9z
	"/>
<polygon class="st3" points="371.9,465 378,465 378,482.5 380.8,482.5 380.8,465 386.9,465 386.9,462.1 371.9,462.1 "/>
<polygon class="st3" points="525.8,464.9 531.9,464.9 531.9,482.4 534.7,482.4 534.7,464.9 540.8,464.9 540.8,462.1 525.8,462.1 "/>
<rect x="412.3" y="462.1" class="st3" width="2.8" height="20.3"/>
<path class="st3" d="M439,478.7c0,0.3,0,0.5-0.1,0.6c-0.1,0.2-0.3,0.3-0.6,0.3c-0.3,0-0.5,0-0.5-0.1c-0.2-0.2-0.4-0.6-0.5-1.2
	l-3.6-12.8c-0.3-1.2-0.8-2.1-1.5-2.6c-0.6-0.5-1.4-0.8-2.4-0.8s-1.9,0.4-2.5,1.1s-0.9,1.6-0.9,2.6v16.6h2.8v-16.6
	c0-0.6,0.2-0.9,0.7-0.9c0.4,0,0.6,0.1,0.8,0.4c0,0.1,0.2,0.4,0.3,1l3.6,12.8c0.3,1.1,0.7,1.9,1.2,2.4c0.6,0.7,1.5,1,2.5,1
	c1.1,0,1.9-0.4,2.6-1.1c0.6-0.7,0.9-1.6,0.9-2.7v-16.5H439V478.7L439,478.7z"/>
<path class="st3" d="M461.5,478.7c-0.2,0.5-0.4,0.8-0.8,0.8s-0.6-0.3-0.8-0.8l-5.4-16.6h-3l5.7,17.5c0.3,0.8,0.7,1.5,1.3,2
	c0.6,0.6,1.4,0.8,2.2,0.8c0.8,0,1.5-0.3,2.2-0.8c0.6-0.5,1-1.2,1.3-2l5.7-17.5h-3L461.5,478.7z"/>
<path class="st3" d="M504.2,463.5c-1.5,1.1-2.3,2.5-2.3,4.4c0,2.2,0.8,3.7,2.3,4.6c0.9,0.5,2.5,0.9,4.6,1.2c1.3,0.2,2.3,0.4,2.9,0.7
	c1,0.5,1.6,1.2,1.6,2.2c0,0.8-0.4,1.5-1.1,2c-0.9,0.6-1.9,0.9-3.2,0.9h-7v2.9h7c1.8,0,3.4-0.5,4.8-1.4c1.5-1.1,2.3-2.5,2.3-4.4
	c0-2.2-0.8-3.7-2.3-4.6c-0.9-0.5-2.5-0.9-4.6-1.2c-1.3-0.2-2.3-0.4-2.9-0.7c-1-0.5-1.6-1.2-1.6-2.2c0-0.8,0.4-1.5,1.1-2
	c0.9-0.6,2-0.9,3.5-0.9h6.8v-2.9h-6.8C507.3,462.1,505.6,462.6,504.2,463.5z"/>
<path class="st3" d="M356.8,474.1c1.9,0,3.3-0.5,4.4-1.6c1-1.1,1.6-2.5,1.6-4.4s-0.5-3.4-1.6-4.5c-1-1.1-2.5-1.6-4.4-1.6h-5.7
	c-1,0-1.9,0.4-2.6,1.1c-0.5,0.5-0.8,1.1-1,1.8h3.9l0,0h5.4c1.1,0,1.9,0.3,2.4,0.8s0.8,1.3,0.8,2.5s-0.2,2.1-0.8,2.6
	c-0.5,0.5-1.3,0.8-2.4,0.8h-2.9c-0.5,0-1,0.2-1.5,0.5c-0.4,0.3-0.7,0.7-0.9,1.2c-0.1,0.4-0.2,0.9-0.1,1.5s0.4,1,0.9,1.4l6.5,6.4h4
	l-8.7-8.3L356.8,474.1L356.8,474.1z"/>
<rect x="347.5" y="470.4" class="st3" width="2.8" height="12.1"/>
<path class="st3" d="M482.8,479.3c-0.2-0.2-0.3-0.4-0.3-0.6V473h9.2v-2.6h-7.9h-1.4h-2.8v8.3c0,1,0.4,1.9,1.1,2.7
	c0.7,0.7,1.6,1.1,2.6,1.1h8.8v-2.9h-8.8C483.1,479.6,482.9,479.5,482.8,479.3z"/>
<path class="st3" d="M480.8,463.1c-0.5,0.5-0.8,1.1-1,1.8h4l0,0h8.4V462h-8.9C482.3,462,481.5,462.4,480.8,463.1z"/>
<path class="st3" d="M249.3,481.4c-0.4-1.1-0.8-2.3-1.2-3.4c-0.2-0.6-0.8-1-1.4-1H129.5c4.2-3.8,8.3-7.5,12.3-11.3
	c7.4,0.4,14.7,0.6,21.7,0.7l0,0l0,0l0,0c9.9,0.1,25.8-2.9,37.6-12.7c22.6-18.8,20-48.1,19.7-50.6c-2.4-0.3-32.2-3-50.9,20
	c-0.9,1.1-1.7,2.1-2.4,3.2c0.3-1.6,0.6-3.2,0.7-4.9c2.5-29.3-20.2-48-22.2-49.6c-1.4,1.1-14.3,12.1-19.6,29.7
	c-6.4-4-12.1-5.6-13.7-6c-0.9,1.4-4.5,7.3-6.3,15.7c-16.8-9.1-35.1-8.1-36.2-8.1c-0.3,5.1-0.1,12.7,2.5,21.5
	c1.7,5.6,6,19.4,19.1,29.4c0.9,0.6,3.3,2.4,6.8,4.3c-0.8-0.2-1.6-0.4-2.4-0.6c-31.3-6.5-55,20.2-56.1,21.4c3.4,3.7,9,9,17,13.3
	c5.2,2.8,18,9.4,34.3,7c2.1-0.3,11.4-1.8,20.7-7.8c0.9-0.6,1.9-1.3,3.1-2.2l0,0l0,0c1.1-0.9,2.4-2,3.9-3.3c1.4-1.1,2.7-2.3,4.1-3.5
	h125.2C249.1,482.5,249.4,481.9,249.3,481.4z M107.3,418.2c1.2,0.9,2.4,1.8,3.6,2.9c13.8,12.3,16.5,28.3,17.1,35.3
	c-6.9-4.1-15.2-11.4-18.9-23.3C107.3,427.8,106.9,422.7,107.3,418.2z M129.8,414.2c0.1-2.4,0.3-4.7,0.7-6.8
	c4.4,3.7,8.7,8.8,11.6,15.8c4.2,10.4,3.3,20.1,1.3,27.1C138.3,444.6,129.3,431.9,129.8,414.2z M141.3,456c-0.7,1.7-1.4,3-1.9,3.9
	c-1.6-0.1-3.2-0.1-4.8-0.2c-0.5-0.2-1.1-0.5-1.7-0.7c0.1-3.8-0.1-9.5-1.8-16.1C134.7,449.1,138.8,453.6,141.3,456z M179.3,421.4
	c15-13.9,33-13.6,36.5-13.5c0.1,3.8,0.2,21.3-13.1,36c-15.4,17.1-36.5,16.9-39.6,16.8C162.9,457.8,162.5,436.9,179.3,421.4z
	 M157.6,460.6c-3.4-0.1-6.8-0.3-10.1-0.4c1.1-1.1,2.2-2.1,3.2-3.2l0,0l0,0l0,0c2.5-2.5,5.3-5.9,7.9-9.8
	C157.5,453.2,157.5,458.1,157.6,460.6z M145.9,378.7c2.8,2.6,15.3,14.8,16.4,34.7c1.3,23-13.6,37.9-15.9,40c-0.2-0.2-0.6-0.5-1-1
	c2.4-8.9,3.5-21.5-3.3-34.1c-3.1-5.8-7.1-10.2-11.1-13.5C134.4,390,143.8,380.8,145.9,378.7z M113.6,398.4c1,0.2,6.2,1.6,12.1,5.4
	c-1.4,5.5-2,11.6-1.3,18.2c0.3,2.8,0.8,5.4,1.5,7.9c-0.4-0.6-0.8-1.3-1.2-2c-4.6-7.1-10.4-12.1-16.5-15.8
	C109.7,404.9,112.8,399.7,113.6,398.4z M88.2,442.6c-12.5-14-13-30.3-12.9-34.4c3.4-0.1,17-0.1,30.1,8.7c-0.4,4.9-0.2,10.4,1.5,16.2
	c3.9,13.5,13.3,21.7,21.1,26.4l0,0C124.9,459.6,103.6,459.8,88.2,442.6z M111.9,463.2c1,0.2,2.2,0.4,3.8,0.6l0,0l0,0
	c1.4,0.2,3.1,0.3,5.1,0.5c4,0.4,8,0.7,12.2,1c0.3,0,0.6,0,1,0.1c-3.1,2.9-6.2,5.8-9.3,8.8c-2.7-2.9-7.7-7.6-14.7-11.4
	C110.5,462.9,111.2,463,111.9,463.2z M80.9,493.8c-18.8-0.9-30.7-12.1-33.6-15c2.7-2.8,14.6-15,34.2-16.2
	c22.4-1.5,37.1,12.5,39.4,14.8C118.8,479.7,104,495,80.9,493.8z"/>
</svg>
