<?xml version="1.0" encoding="UTF-8"?>
<svg version="1.1" xmlns="http://www.w3.org/2000/svg" width="512" height="512">
<path d="M0 0 C168.96 0 337.92 0 512 0 C512 168.96 512 337.92 512 512 C343.04 512 174.08 512 0 512 C0 343.04 0 174.08 0 0 Z " fill="#000000" transform="translate(0,0)"/>
<path d="M0 0 C1.56814453 -0.03867187 1.56814453 -0.03867187 3.16796875 -0.078125 C12.9160824 0.79951867 20.53166384 5.04059813 28.8125 10 C30.53535965 11.01304148 32.25822919 12.02606661 33.98168945 13.03808594 C35.75790809 14.08277617 37.53145862 15.13188523 39.3046875 16.18164062 C44.78034699 19.41760118 50.29883242 22.57941081 55.8125 25.75 C57.9767469 26.99837829 60.14080891 28.24707716 62.3046875 29.49609375 C66.66315388 32.01069436 71.02262191 34.52354661 75.3828125 37.03515625 C86.8669882 43.65222892 98.33446894 50.29633977 109.77832031 56.98291016 C117.06872644 61.23982871 124.37405789 65.47029164 131.6875 69.6875 C132.75250732 70.30214111 133.81751465 70.91678223 134.91479492 71.55004883 C140.01617624 74.49237114 145.12082358 77.42871103 150.23492432 80.34886169 C152.62460708 81.71395767 155.01248891 83.08218617 157.40020752 84.45071411 C159.08193448 85.41286142 160.76627694 86.37043256 162.45068359 87.32788086 C163.47371582 87.91448486 164.49674805 88.50108887 165.55078125 89.10546875 C166.44837158 89.61746826 167.34596191 90.12946777 168.27075195 90.65698242 C172.19665341 93.11750562 175.22955974 95.37558962 177.8125 99.25 C177.6125693 104.64812892 176.42112794 107.31454854 172.8125 111.25 C170.35253906 112.97241211 170.35253906 112.97241211 167.578125 114.52734375 C166.54171875 115.11580078 165.5053125 115.70425781 164.4375 116.31054688 C163.32375 116.92994141 162.21 117.54933594 161.0625 118.1875 C159.88997134 118.84975548 158.71810603 119.51318667 157.546875 120.17773438 C155.14066189 121.54246144 152.73218515 122.90306067 150.32226562 124.26123047 C145.11938586 127.20088244 139.96725898 130.22702503 134.8125 133.25 C123.26639783 139.99903284 111.68346355 146.68340249 100.09472656 153.35888672 C94.66590062 156.48680146 89.23927993 159.61853731 83.8125 162.75 C77.29016725 166.51363919 70.76736238 170.27644622 64.2421875 174.03515625 C62.05726069 175.29421708 59.87236471 176.55333141 57.6875 177.8125 C56.62144531 178.42657715 55.55539062 179.0406543 54.45703125 179.67333984 C49.02502647 182.80598294 43.6027121 185.95395597 38.1953125 189.12890625 C37.12297363 189.75788818 36.05063477 190.38687012 34.94580078 191.03491211 C32.92945917 192.2190454 30.91467981 193.40584504 28.90185547 194.59594727 C26.21851205 196.17165069 23.52055793 197.71722759 20.8125 199.25 C19.97017822 199.74072998 19.12785645 200.23145996 18.26000977 200.73706055 C12.29041884 204.01524701 7.52735439 205.00734236 0.75 204.8125 C-0.08337891 204.82345703 -0.91675781 204.83441406 -1.77539062 204.84570312 C-10.96559896 204.73842443 -17.94507403 200.62445944 -25.5625 195.875 C-30.75187881 192.69920659 -35.98229547 189.67360229 -41.34765625 186.80126953 C-44.2038828 185.24105087 -47.01625349 183.62193078 -49.82421875 181.9765625 C-50.87681885 181.36055176 -51.92941895 180.74454102 -53.01391602 180.10986328 C-54.06119873 179.4961084 -55.10848145 178.88235352 -56.1875 178.25 C-58.02327155 177.17679941 -59.85920334 176.10387288 -61.6953125 175.03125 C-63.06212158 174.23267578 -63.06212158 174.23267578 -64.45654297 173.41796875 C-72.01866962 169.0014489 -79.58437088 164.5915453 -87.171875 160.21875 C-87.74956635 159.88580933 -88.32725769 159.55286865 -88.92245483 159.20983887 C-91.70794115 157.60504644 -94.4943516 156.0018802 -97.28173828 154.40039062 C-102.9070397 151.16354999 -108.49456867 147.87444088 -114.05224609 144.52294922 C-116.52114142 143.05109691 -119.02541192 141.66315045 -121.5625 140.3125 C-128.78701815 136.40680811 -135.86472526 132.26072075 -142.89453125 128.015625 C-143.52834717 127.63293457 -144.16216309 127.25024414 -144.81518555 126.85595703 C-146.10210047 126.07877409 -147.3887231 125.30110695 -148.67504883 124.52294922 C-152.43879515 122.25878648 -156.2413 120.1173108 -160.125 118.0625 C-166.28955388 114.74595164 -172.29207941 111.2137855 -176.1875 105.25 C-176.875 101.9375 -176.875 101.9375 -176.1875 98.25 C-171.47204083 91.51816603 -162.45254412 87.90653321 -155.40625 84.1015625 C-149.76094125 81.04404605 -144.2237669 77.81226425 -138.6875 74.5625 C-130.2452831 69.61752239 -121.78945857 64.69771056 -113.3125 59.8125 C-112.23291016 59.19028564 -111.15332031 58.56807129 -110.04101562 57.92700195 C-107.8506748 56.66488483 -105.66024498 55.40292215 -103.46972656 54.14111328 C-98.04090062 51.01319854 -92.61427993 47.88146269 -87.1875 44.75 C-80.66516725 40.98636081 -74.14236238 37.22355378 -67.6171875 33.46484375 C-65.43224163 32.205816 -63.24734558 30.94670178 -61.0625 29.6875 C-59.99427002 29.07197266 -58.92604004 28.45644531 -57.82543945 27.82226562 C-51.36575088 24.09603084 -44.92194207 20.34380516 -38.48803711 16.57324219 C-10.45140695 0.15276112 -10.45140695 0.15276112 0 0 Z " fill="#FEFEFE" transform="translate(255.1875,44.75)"/>
<path d="M0 0 C0 0.66 0 1.32 0 2 C0.99 2.33 1.98 2.66 3 3 C5.42970541 6.64455811 5.25558303 8.3594666 5.26742554 12.70263672 C5.27195665 13.38755912 5.27648776 14.07248152 5.28115618 14.77815914 C5.2938402 17.07873672 5.29217722 19.37907877 5.29052734 21.6796875 C5.29651045 23.32728887 5.30331549 24.97488744 5.31088257 26.6224823 C5.32858045 31.10432019 5.33323978 35.58608175 5.33451414 40.0679512 C5.33593513 42.87033127 5.34020393 45.6726919 5.34550858 48.47506714 C5.36402735 58.25894401 5.37217762 68.04276634 5.37060547 77.82666016 C5.3694063 86.93280808 5.39045959 96.03871812 5.4220928 105.14480591 C5.44830316 112.97003794 5.45897064 120.79519258 5.45769465 128.62046814 C5.45718605 133.29058177 5.46281167 137.96048445 5.48405075 142.6305542 C5.50351125 147.03011845 5.50350458 151.42927241 5.48901749 155.8288517 C5.48693734 157.43679724 5.49158257 159.04476897 5.5037384 160.65266991 C5.59300645 173.28722806 4.07877933 184.4625034 -5 194 C-10.23166237 199.08396858 -16.0615449 202.52284809 -22.4375 206 C-24.50605976 207.14820704 -26.57374172 208.29799663 -28.640625 209.44921875 C-29.69701172 210.03622559 -30.75339844 210.62323242 -31.84179688 211.22802734 C-36.82792656 214.02559454 -41.75750958 216.91749435 -46.6875 219.8125 C-55.42566389 224.93311708 -64.20015333 229.98647143 -73 235 C-81.73411127 239.97711788 -90.44730428 244.98738242 -99.125 250.0625 C-115.98034597 259.91943566 -132.88141072 269.6955535 -149.875 279.3125 C-150.83801025 279.857854 -151.80102051 280.40320801 -152.79321289 280.96508789 C-153.68387451 281.4677417 -154.57453613 281.97039551 -155.4921875 282.48828125 C-156.26933105 282.92696533 -157.04647461 283.36564941 -157.84716797 283.81762695 C-164.29547712 287.35915125 -164.29547712 287.35915125 -168 287.0625 C-168.66 287.03285156 -169.32 287.00320313 -170 286.97265625 C-173.28419607 285.37545933 -174.59754757 282.2307118 -176 279 C-176.50336456 275.52446938 -176.50336456 275.52446938 -176.50793457 271.80288696 C-176.51417453 271.11313573 -176.5204145 270.4233845 -176.52684355 269.71273172 C-176.54269816 267.41962275 -176.53019996 265.12758801 -176.51757812 262.83447266 C-176.52300274 261.18303308 -176.5301273 259.53159835 -176.53881836 257.88017273 C-176.55701728 253.40686388 -176.54999768 248.93392504 -176.53730202 244.46060991 C-176.52715313 239.77096107 -176.53657325 235.08134325 -176.54284668 230.39169312 C-176.55011903 222.51497735 -176.54054773 214.63841171 -176.52148438 206.76171875 C-176.49973153 197.66905721 -176.50675709 188.57675469 -176.52879 179.48410189 C-176.54697383 171.66559463 -176.5494873 163.84719512 -176.53903532 156.02867353 C-176.53281482 151.36429744 -176.53192459 146.70008976 -176.54518127 142.03572464 C-176.55678211 137.64756638 -176.54863721 133.25986825 -176.52560425 128.87175941 C-176.52033902 127.26620941 -176.52179329 125.66062032 -176.53065491 124.05508614 C-176.57280092 115.63973808 -176.4422074 108.39201676 -172 101 C-171.55398438 100.14148438 -171.10796875 99.28296875 -170.6484375 98.3984375 C-164.58629902 88.7659598 -154.34663532 83.87487514 -144.65325928 78.43551636 C-141.55467339 76.6964902 -138.46572399 74.94044756 -135.375 73.1875 C-134.75011688 72.83372787 -134.12523376 72.47995575 -133.48141479 72.11546326 C-127.58305658 68.77320771 -121.72475297 65.36406384 -115.875 61.9375 C-104.37170972 55.20717679 -92.8307605 48.54343926 -81.28222656 41.89111328 C-74.7764039 38.1426677 -68.27355917 34.38905819 -61.77026367 30.63623047 C-56.24262719 27.44671205 -50.71400619 24.25892179 -45.18359375 21.07421875 C-43.50317993 20.10560913 -43.50317993 20.10560913 -41.78881836 19.11743164 C-39.57875526 17.84471737 -37.36735696 16.57431846 -35.15454102 15.30639648 C-30.35884883 12.5518779 -25.59218201 9.7739721 -20.90625 6.8359375 C-20.14127197 6.36260986 -19.37629395 5.88928223 -18.58813477 5.40161133 C-17.21844709 4.54876346 -15.85825643 3.680327 -14.51147461 2.79174805 C-9.65643401 -0.21387679 -5.64349626 -0.47210715 0 0 Z " fill="#FEFEFE" transform="translate(441,174)"/>
<path d="M0 0 C2.33002246 1.1919111 4.58521772 2.46844149 6.84106445 3.79541016 C7.69684082 4.28235352 8.55261719 4.76929688 9.43432617 5.27099609 C12.2259095 6.86632999 15.00289289 8.48507038 17.77856445 10.10791016 C19.68593422 11.21369345 21.59348848 12.31915855 23.5012207 13.42431641 C27.51076735 15.7533249 31.51365624 18.09335683 35.51293945 20.43994141 C41.87627481 24.17116986 48.26206 27.86269073 54.65356445 31.54541016 C55.73331543 32.16770508 56.81306641 32.79 57.92553711 33.43115234 C60.1157098 34.69319741 62.30597688 35.95507868 64.49633789 37.21679688 C69.92516388 40.34471164 75.35175726 43.47649463 80.77856445 46.60791016 C82.94522028 47.85792895 85.11188695 49.10792894 87.27856445 50.35791016 C91.61189779 52.85791016 95.94523112 55.35791016 100.27856445 57.85791016 C101.35243408 58.47730469 102.42630371 59.09669922 103.53271484 59.73486328 C105.68605718 60.97746896 107.83889461 62.22095004 109.99121094 63.46533203 C115.01455141 66.36823112 120.04210628 69.26274484 125.08877563 72.12487793 C126.86358915 73.13199241 128.63673746 74.14197884 130.40942383 75.15283203 C132.62493024 76.41505282 134.84347781 77.67195741 137.06567383 78.92236328 C153.84192301 88.50420312 153.84192301 88.50420312 158.71606445 96.60791016 C159.26133789 97.48447266 159.80661133 98.36103516 160.3684082 99.26416016 C163.13549597 104.84432606 164.02881081 110.05270004 164.03926086 116.24255371 C164.04308641 116.92554897 164.04691196 117.60854423 164.05085343 118.31223631 C164.06110468 120.58209838 164.05720647 122.85170376 164.05322266 125.12158203 C164.05757344 126.75655855 164.06275781 128.39153304 164.06871033 130.02650452 C164.08207052 134.45412784 164.08268244 138.88166565 164.08014703 143.30930519 C164.07907554 147.00965734 164.0839651 150.70999232 164.08875245 154.41034079 C164.09983679 163.14076116 164.10029073 171.8711385 164.09423828 180.6015625 C164.0881952 189.6010441 164.10052045 198.60036948 164.12180835 207.59982443 C164.13943136 215.33505292 164.1454247 223.07023171 164.14217061 230.80547953 C164.14035912 235.42170875 164.14298077 240.03782647 164.15688515 244.65403748 C164.16947067 248.99449705 164.16751258 253.33471311 164.15447426 257.67516899 C164.15211071 259.2654421 164.15483524 260.85573239 164.16309738 262.44598579 C164.17358549 264.62202699 164.16544865 266.79725411 164.15278625 268.9732666 C164.152954 270.18923775 164.15312174 271.40520889 164.15329456 272.65802765 C163.66754474 277.12999231 162.57593951 281.51024344 159.09106445 284.60791016 C150.98947151 286.35960593 145.45518664 282.51152213 138.82104492 278.36816406 C134.49130926 275.69662504 130.0963802 273.13280796 125.71606445 270.54541016 C124.80646973 270.00368164 123.896875 269.46195312 122.9597168 268.90380859 C117.56518932 265.70180792 112.11522518 262.63928546 106.59765625 259.6550293 C101.58151895 256.90217037 96.65232243 254.0008163 91.71606445 251.10791016 C90.70479492 250.51751953 89.69352539 249.92712891 88.65161133 249.31884766 C83.86927559 246.52273636 79.10071245 243.70686236 74.35668945 240.84619141 C71.14136341 238.91116314 67.91094713 237.04710705 64.59106445 235.29541016 C59.46610043 232.53358372 54.48290031 229.57108302 49.52001953 226.53051758 C45.91919882 224.33908021 42.27111506 222.27071043 38.5637207 220.26416016 C32.5409054 217.00210333 26.62507461 213.57090011 20.71606445 210.10791016 C19.70479492 209.51751953 18.69352539 208.92712891 17.65161133 208.31884766 C14.6905304 206.58757819 11.73370712 204.84929327 8.77856445 203.10791016 C7.84778076 202.56183105 6.91699707 202.01575195 5.95800781 201.453125 C5.08152588 200.93443848 4.20504395 200.41575195 3.30200195 199.88134766 C2.53162598 199.42679199 1.76125 198.97223633 0.9675293 198.50390625 C-8.1067426 192.71685665 -13.6353848 185.48876773 -16.6056118 175.17481041 C-17.87221491 168.86692535 -17.62791107 162.43559144 -17.59375 156.02905273 C-17.59618203 154.42318995 -17.59990532 152.81732869 -17.60481262 151.21147156 C-17.61416673 146.87693928 -17.60484381 142.54263496 -17.59148049 138.20812058 C-17.58011196 133.6603687 -17.58427752 129.11262714 -17.58622742 124.56486511 C-17.58710842 116.93309837 -17.57606837 109.3014208 -17.55761719 101.66967773 C-17.53642979 92.855906 -17.5329457 84.04226458 -17.53917915 75.22847253 C-17.54487929 66.73246917 -17.53922093 58.23651152 -17.5280056 49.74051476 C-17.52337057 46.1318343 -17.52248098 42.5231819 -17.52459145 38.91449928 C-17.52647914 34.6651344 -17.51833355 30.41590162 -17.50253105 26.16656685 C-17.4983 24.6101613 -17.49742969 23.05374232 -17.50022125 21.49733353 C-17.5034609 19.36757044 -17.49431714 17.23819771 -17.48213196 15.10847473 C-17.48007909 13.91852307 -17.47802622 12.72857141 -17.47591114 11.50256062 C-17.1380758 6.9959088 -16.48717246 2.7280534 -13.65893555 -0.89208984 C-9.21289015 -2.71610847 -4.38971362 -1.76283257 0 0 Z " fill="#FEFEFE" transform="translate(83.221435546875,175.89208984375)"/>
<path d="M0 0 C4.44522357 2.87374313 7.38353179 6.01315733 9.7734375 10.79296875 C9.99757348 15.57778457 9.33885404 19.68737934 6.3984375 23.54296875 C0.80232547 29.39778182 -8.24055235 32.84973657 -16.234375 33.03125 C-18.2733578 33.06186136 -20.31243953 33.08635197 -22.3515625 33.10546875 C-23.35960937 33.13447266 -24.36765625 33.16347656 -25.40625 33.19335938 C-36.13833691 33.28372021 -44.32886647 29.47772148 -52.1015625 22.04296875 C-54.72364778 18.03272068 -55.19829957 15.44609434 -54.2265625 10.79296875 C-51.30242565 4.4361495 -45.59733449 0.63752979 -39.27758789 -2.02954102 C-26.70730538 -6.67221893 -11.94773673 -5.97386837 0 0 Z " fill="#020202" transform="translate(278.2265625,132.20703125)"/>
<path d="M0 0 C1.134375 0.598125 2.26875 1.19625 3.4375 1.8125 C7.74349862 5.48835248 9.7122597 8.94985039 10.5 14.5625 C9.76958691 19.58408999 7.97824616 22.37783815 4.046875 25.6015625 C-7.26196574 33.62846694 -19.00290408 34.35860873 -32.44921875 32.53125 C-40.64912578 30.76737755 -47.02922691 27.40552037 -52.5625 21.0625 C-54.32182834 17.31436571 -54.58556379 15.09894656 -54 11 C-50.19104747 3.80531189 -44.30223637 0.0921995 -37 -3 C-25.85756724 -6.28509141 -10.16005021 -5.57164044 0 0 Z " fill="#020202" transform="translate(159,132)"/>
<path d="M0 0 C4.06519572 3.41339218 5.91570825 6.77750886 6.9375 12 C6.08035575 16.76191248 3.84343267 19.80051414 0.375 23.125 C-2.82112953 25.17817706 -6.09368555 26.73615986 -9.625 28.125 C-10.50671875 28.49109375 -11.3884375 28.8571875 -12.296875 29.234375 C-21.91875829 31.80924518 -35.64144235 31.9589254 -44.6171875 27.390625 C-45.61105469 26.76414062 -45.61105469 26.76414062 -46.625 26.125 C-47.74261719 25.43664062 -47.74261719 25.43664062 -48.8828125 24.734375 C-53.17397521 21.81207782 -55.93912253 19.18263242 -57.625 14.125 C-58.17735733 10.33740687 -57.8424507 8.5599014 -56.125 5.125 C-42.90432597 -10.73980884 -16.54485571 -11.38957458 0 0 Z " fill="#010101" transform="translate(400.625,134.875)"/>
<path d="M0 0 C12.62386906 5.84229655 20.45065622 17.873116 25.3125 30.375 C26.54418581 36.86934338 26.99483408 43.29973608 24.6875 49.5625 C22.29310731 53.02106722 21.03445802 54.65518066 17 56 C10.26943476 56.82415085 5.5379276 54.57004767 0 51 C-10.41913 42.71716644 -17.68545368 30.25888213 -19.37890625 17.04296875 C-19.64147855 10.85134442 -18.78346066 6.93951809 -15 2 C-10.31801252 -0.95387193 -5.3367449 -0.90128537 0 0 Z " fill="#030303" transform="translate(209,261)"/>
<path d="M0 0 C12.01270237 5.49733837 18.8944738 15.55730826 23.84765625 27.47265625 C26.33325205 34.82500687 27.10995979 42.64298569 23.78515625 49.78515625 C20.40454058 53.25713991 18.12175917 54.90147344 13.28515625 55.66015625 C3.52122421 54.37964057 -3.38178924 48.54425822 -9.52734375 41.16015625 C-16.08124388 32.25619393 -20.37005063 21.81741193 -19.91796875 10.64453125 C-19.29060221 6.65448003 -17.98766445 4.37224161 -15.52734375 1.16015625 C-10.57834324 -1.87906398 -5.43133552 -1.80484874 0 0 Z " fill="#030303" transform="translate(97.52734375,319.83984375)"/>
<path d="M0 0 C3.37886275 2.60608149 4.9442292 5.06872455 6.23046875 9.05078125 C7.77295809 22.09182751 2.94132599 32.55664867 -4.80859375 42.7265625 C-10.15769147 49.10578681 -15.78315378 54.08001734 -24.2265625 55.44921875 C-28.79009239 55.64598787 -32.28574232 55.22717704 -35.76953125 52.05078125 C-39.44877652 46.0878665 -39.75474524 39.91497711 -38.76953125 33.05078125 C-34.69494115 19.84448567 -26.73392767 8.32856166 -14.921875 0.88671875 C-10.32085571 -1.35614715 -4.70370629 -2.52318019 0 0 Z " fill="#030303" transform="translate(371.76953125,289.94921875)"/>
</svg>
