<?xml version="1.0" encoding="UTF-8"?>
<svg version="1.1" xmlns="http://www.w3.org/2000/svg" width="500" height="500">
<path d="M0 0 C0.91749023 0.51578613 0.91749023 0.51578613 1.85351562 1.04199219 C8.99213806 5.07642611 15.97740586 9.35403539 22.9375 13.6875 C37.86260316 22.92507942 53.22220725 31.47613404 68.5625 40 C79.10467987 45.86440325 89.45222163 52.01724986 99.77734375 58.25390625 C106.03241801 62.02901247 112.31855185 65.74891661 118.625 69.4375 C119.62281494 70.02152588 120.62062988 70.60555176 121.64868164 71.20727539 C127.1962954 74.43330064 132.79249938 77.50549462 138.5 80.4375 C150.97861217 86.95722433 150.97861217 86.95722433 154 93 C154.58334469 100.11680523 154.58334469 100.11680523 152.328125 103.53125 C149.8537121 106.15512408 147.52596674 107.83119861 144.4375 109.6875 C143.88449219 110.02072266 143.33148438 110.35394531 142.76171875 110.69726562 C137.04949975 114.08113449 131.15880628 117.14273191 125.23999023 120.1472168 C119.43205817 123.12703618 113.90201454 126.46891439 108.36035156 129.91650391 C102.9913246 133.24542545 97.55980379 136.46744103 92.125 139.6875 C91.54695618 140.03004822 90.96891235 140.37259644 90.37335205 140.7255249 C76.626424 148.86467815 62.72781496 156.72568373 48.75 164.4609375 C34.59803046 172.30844371 20.8040724 180.59441478 7.09863281 189.19287109 C-4.56971938 196.46151735 -14.91444278 199.90702593 -28.79296875 197.51953125 C-39.41528699 194.56805496 -48.75348286 187.8092163 -58 182 C-69.79605068 174.6240472 -81.86766606 167.80556327 -94 161 C-112.56969416 150.57984056 -131.01610319 139.98187873 -149.12109375 128.76953125 C-155.59824636 124.78832347 -162.08992459 120.87584294 -168.9375 117.5625 C-173.01277656 115.56442751 -176.93053988 113.34823805 -180.8125 111 C-182.39998047 110.0409375 -182.39998047 110.0409375 -184.01953125 109.0625 C-188.33055744 106.07924728 -191.51156605 103.6789917 -193 98.5625 C-193 94.1938174 -192.58657091 92.54729725 -190 89 C-184.09741578 83.80220196 -177.03205856 80.34672313 -170.09423828 76.76074219 C-157.92854011 70.43109493 -146.18936182 63.26486875 -134.5625 56 C-124.90134856 50.00732219 -114.91326754 44.56079067 -105 39 C-87.45827221 29.15667146 -69.98937854 19.19924103 -52.875 8.625 C-44.67254601 3.55751534 -44.67254601 3.55751534 -40.625 1.125 C-39.70976562 0.57070313 -38.79453125 0.01640625 -37.8515625 -0.5546875 C-26.62398889 -6.2453755 -10.94784377 -6.24219162 0 0 Z M-163 88 C-165.33054832 91.85852371 -166.00028523 95.5907427 -165 100 C-160.92053416 107.56023873 -153.86791013 110.5024209 -146 113 C-135.33423818 115.52949336 -123.03866562 114.26671952 -113.5 108.6875 C-109.41723173 105.82179373 -106.30785043 102.53396022 -104 98.0625 C-104 93.82153297 -105.70977139 90.46807093 -108.4453125 87.35546875 C-117.51131103 79.02740033 -128.03560329 77.50398461 -139.9140625 77.72265625 C-148.64494056 78.12869662 -156.80790203 81.79238299 -163 88 Z M-46.875 88.75 C-49.16303712 92.24935088 -49.71239399 93.98219629 -49.41015625 98.05078125 C-48.37233983 102.98288025 -45.44308664 105.92389197 -41.4375 108.6875 C-31.33418256 114.45550811 -19.82239283 115.5452718 -8.5 113.30859375 C-0.3634076 111.05784655 6.19972097 108.07313314 11.0625 101 C12.22968621 97.26500414 12.33375889 95.70488582 11 92 C6.46556934 84.60785742 0.11144367 81.49007428 -8 79 C-22.22450168 76.16237562 -36.1588004 78.49972212 -46.875 88.75 Z M69 89 C66.51874231 92.72188653 66.3605427 95.68776229 67 100 C70.02198594 106.42172012 75.06971405 109.44775436 81.47265625 111.9765625 C93.25545298 115.69013908 104.7405903 114.98508216 116 110 C120.80808869 107.37740617 123.98688727 104.5196691 127 100 C127.66284543 95.87562841 127.33416992 93.71192723 125.5625 89.9375 C118.77034563 82.15137182 110.1552791 78.57718641 99.94921875 77.75390625 C88.06059012 77.49709979 77.09446312 79.71517466 69 89 Z " fill="#F5F5F5" transform="translate(269,47)"/>
<path d="M0 0 C4.64005741 3.96338237 5.3898233 7.11248151 6 13 C6.08761132 15.20568602 6.1303986 17.41350307 6.13371277 19.6209259 C6.14011024 21.55735207 6.14011024 21.55735207 6.14663696 23.53289795 C6.14628752 24.94616702 6.14582603 26.35943607 6.14526367 27.77270508 C6.14825887 29.27473534 6.15166223 30.77676484 6.15544128 32.27879333 C6.1642488 36.34504042 6.16661803 40.41126643 6.16725707 44.47752213 C6.16796943 47.02194514 6.17010726 49.56636285 6.17275429 52.11078453 C6.18199702 60.99874586 6.18609052 69.88669223 6.18530273 78.7746582 C6.18470225 87.0412784 6.19525099 95.30783328 6.2110464 103.57443696 C6.22414967 110.68720518 6.22948546 117.79995212 6.22884732 124.9127323 C6.22859315 129.15400631 6.23139951 133.39522223 6.24202538 137.63648415 C6.25175337 141.62807726 6.25175353 145.6195573 6.24450874 149.61115456 C6.24346872 151.06955125 6.24579091 152.52795517 6.2518692 153.98633957 C6.28942739 163.62827744 6.29442333 173.34471335 1.8125 182.125 C1.44769531 182.87007812 1.08289063 183.61515625 0.70703125 184.3828125 C-4.12051862 191.78431917 -9.51133323 196.44897005 -17.25 200.625 C-18.09626953 201.09808594 -18.94253906 201.57117188 -19.81445312 202.05859375 C-22.20125316 203.38846085 -24.59781119 204.69818938 -27 206 C-27.99515625 206.54398438 -28.9903125 207.08796875 -30.015625 207.6484375 C-31.67790657 208.55276049 -33.34198836 209.45378189 -35.0078125 210.3515625 C-39.16107543 212.63965252 -43.26880947 215.00368305 -47.375 217.375 C-48.50711914 218.02662109 -48.50711914 218.02662109 -49.66210938 218.69140625 C-54.24571864 221.34732938 -58.77047638 224.08438479 -63.2734375 226.875 C-69.85169541 230.93784414 -76.52807952 234.80569429 -83.25 238.625 C-84.46660833 239.3184246 -85.68315991 240.01194878 -86.8996582 240.70556641 C-94.97258249 245.3033961 -103.07458789 249.84808513 -111.1875 254.375 C-124.36219892 261.72860775 -137.38873703 269.28598301 -150.16796875 277.30859375 C-155.65349221 280.58477535 -159.48025853 282.71124452 -166 282 C-168.9117213 281.00736774 -170.41055467 280.12002646 -171.86288738 277.36039639 C-174.58291804 269.98380495 -174.4162695 262.67923494 -174.37231445 254.90844727 C-174.37474626 253.39626821 -174.37846935 251.88409077 -174.38337708 250.37191772 C-174.39273726 246.2871119 -174.38340144 242.20254776 -174.37004495 238.1177609 C-174.35867532 233.8289904 -174.36284226 229.54023084 -174.36479187 225.25144958 C-174.3656732 218.04999882 -174.35462891 210.84864248 -174.33618164 203.6472168 C-174.31502455 195.3407806 -174.31150343 187.03448271 -174.3177436 178.72802502 C-174.32345404 170.71417718 -174.31777132 162.70037766 -174.30657005 154.68653679 C-174.30194546 151.28687578 -174.30104091 147.88724454 -174.3031559 144.48758125 C-174.30505057 140.47788392 -174.29684505 136.46832574 -174.2810955 132.45866013 C-174.27688155 130.99381906 -174.27598245 129.52896379 -174.27878571 128.06411934 C-174.29547556 117.77615374 -174.01479584 108.15267667 -169.3125 98.8125 C-168.85488281 97.87019531 -168.39726562 96.92789063 -167.92578125 95.95703125 C-163.21605141 88.72525541 -157.41744075 84.7160456 -149.75 81 C-143.54882911 77.9351709 -137.70780988 74.60586931 -131.90136719 70.84277344 C-126.78712056 67.59451245 -121.51120301 64.62706749 -116.25 61.625 C-109.24585577 57.61442134 -102.2558096 53.59421288 -95.375 49.375 C-87.98421129 44.88955581 -80.37495831 40.82421249 -72.73583984 36.77880859 C-66.90644322 33.6689577 -61.30575735 30.3484213 -55.75976562 26.75878906 C-51.04983033 23.75716363 -46.20975512 20.98190701 -41.375 18.1875 C-39.27453488 16.96910282 -37.17427587 15.75035027 -35.07421875 14.53125 C-34.04989746 13.93699219 -33.02557617 13.34273437 -31.97021484 12.73046875 C-29.22969086 11.13381957 -26.49736325 9.52446438 -23.76953125 7.90625 C-22.98852051 7.44323486 -22.20750977 6.98021973 -21.40283203 6.50317383 C-19.96368032 5.64846934 -18.52577965 4.79165356 -17.08935547 3.93237305 C-11.41938549 0.57001601 -6.60061097 -1.204322 0 0 Z M-95.6953125 126.80078125 C-101.08551987 135.88666972 -106.63861653 147.64193354 -104.3125 158.4375 C-102.90134533 162.76823498 -102.90134533 162.76823498 -100 166 C-94.74457429 167.54445164 -89.97202866 167.33663762 -84.96875 165.1328125 C-73.87202861 158.74779424 -66.92365341 147.90120599 -63 136 C-61.55439228 130.52936686 -61.61622426 125.17588344 -64 120 C-67.00833179 116.47805059 -69.53376541 114.68329256 -74.125 114.25 C-82.22609932 114.72976054 -90.83945635 120.4077162 -95.6953125 126.80078125 Z " fill="#F6F6F6" transform="translate(431,169)"/>
<path d="M0 0 C2.04423467 1.20398373 4.08554409 2.41293902 6.125 3.625 C7.48006618 4.37654081 8.83835963 5.12228166 10.19921875 5.86328125 C17.8978524 10.05742116 25.4802177 14.38950168 32.9375 19 C46.43652245 27.34366168 60.20088763 35.2522951 74.3125 42.515625 C78.27192931 44.63414916 82.05401133 47.03479818 85.86691284 49.4037323 C92.8135301 53.70027274 99.93267704 57.68918892 107.04638672 61.70043945 C114.04945398 65.65384538 120.92539529 69.73510651 127.68164062 74.09985352 C130.95848406 76.14526128 134.35298309 77.85394534 137.8125 79.5625 C147.63099823 84.65403242 154.28629918 91.01649733 158.125 101.625 C160.40244775 109.71255543 160.40862436 117.59914107 160.38378906 125.93188477 C160.38650325 127.46701218 160.39006657 129.00213829 160.39440918 130.53726196 C160.40348384 134.68386095 160.40000955 138.8303598 160.39365101 142.97696042 C160.38856634 147.3280623 160.39328921 151.67915594 160.39642334 156.03025818 C160.40005543 163.33423391 160.39528339 170.6381691 160.38574219 177.94213867 C160.37485502 186.37357694 160.37838817 194.80491848 160.389395 203.23635441 C160.39848461 210.4909617 160.39974509 217.74553995 160.39451766 225.0001511 C160.39140769 229.32627919 160.39096189 233.65236188 160.39759064 237.97848701 C160.40338801 242.0456213 160.39932362 246.11263141 160.38780212 250.17975235 C160.38516847 251.66801307 160.38589838 253.15628433 160.39032745 254.64454079 C160.43984233 272.97946591 160.43984233 272.97946591 155.9375 278.125 C152.35199651 280.03726853 150.16374328 279.92165481 146.125 279.625 C142.9765625 278.4453125 142.9765625 278.4453125 139.75 276.75 C139.14897461 276.43611328 138.54794922 276.12222656 137.92871094 275.79882812 C131.87352938 272.58967501 125.98541889 269.08832085 120.1015625 265.578125 C114.01741902 261.95342132 107.88360151 258.4151529 101.75 254.875 C100.66879883 254.24916016 99.58759766 253.62332031 98.47363281 252.97851562 C92.66782635 249.6278478 86.82737711 246.35985622 80.93408203 243.16601562 C75.66091895 240.27324617 70.45735543 237.25914498 65.25 234.25 C64.67984161 233.92073517 64.10968323 233.59147034 63.52224731 233.25222778 C43.77162259 221.8393784 43.77162259 221.8393784 34.5625 215.5 C29.37806928 211.97922988 23.77091954 209.31899206 18.125 206.625 C18.125 205.965 18.125 205.305 18.125 204.625 C17.12726563 204.50318359 17.12726563 204.50318359 16.109375 204.37890625 C5.20371761 201.62394306 -7.94945843 193.17313742 -13.7109375 183.5625 C-16.99005975 177.1582049 -18.9987958 172.19073229 -19.00871277 164.95791626 C-19.01097833 164.27692757 -19.01324388 163.59593888 -19.01557809 162.89431417 C-19.0219193 160.60742278 -19.02108865 158.32059063 -19.02026367 156.03369141 C-19.0232551 154.39606143 -19.02665759 152.75843217 -19.03044128 151.12080383 C-19.03928737 146.66830466 -19.04161966 142.2158247 -19.04225707 137.76331758 C-19.04320587 134.04807054 -19.04688385 130.33282799 -19.05042917 126.61758268 C-19.0585761 117.85280021 -19.06101319 109.08802801 -19.06030273 100.32324219 C-19.05970192 91.27839733 -19.07025385 82.2336121 -19.0860464 73.18878233 C-19.09911721 65.42649702 -19.10448682 57.66423122 -19.10384732 49.90193498 C-19.10359219 45.26449322 -19.10645165 40.62710443 -19.11702538 35.98967361 C-19.12669858 31.62798216 -19.12679088 27.26639441 -19.11950874 22.90469933 C-19.11846192 21.30391349 -19.12083158 19.70312122 -19.1268692 18.10234642 C-19.13457843 15.91679231 -19.12995158 13.73159731 -19.12223816 11.54605103 C-19.12305531 9.71153602 -19.12305531 9.71153602 -19.12388897 7.8399601 C-18.87735832 4.655463 -18.30892833 2.46281499 -16.875 -0.375 C-11.69677065 -4.55741601 -5.28765087 -2.87531245 0 0 Z M106.125 87.625 C102.87480394 92.76829272 103.58403115 98.77989752 104.125 104.625 C106.97957379 116.24929533 114.53965646 127.38956553 124.5 134.1875 C128.94619608 136.62232166 133.11106498 137.42116359 138.125 136.625 C141.79742589 134.5847634 143.40146411 133.30914524 145.04296875 129.48828125 C147.54862009 120.05792075 144.48386791 111.63558943 139.875 103.375 C134.3575711 94.52629328 128.30583345 87.01861115 118.125 83.625 C112.6254719 83.11578444 110.01289091 83.62602649 106.125 87.625 Z M-1.25 142.375 C-5.6977439 148.53341463 -5.55759183 154.17547924 -4.875 161.625 C-1.8866542 174.09528628 5.3388784 184.46883561 16.0390625 191.42578125 C20.21614751 193.82721402 24.40293135 194.37481808 29.125 193.625 C32.77953892 191.5947006 34.38733015 190.31379309 36.04296875 186.5234375 C38.25910966 178.27670708 36.41506131 170.13447805 32.60546875 162.6328125 C26.80799651 152.55883962 26.80799651 152.55883962 17.91796875 145.9140625 C17.03044922 145.77097656 17.03044922 145.77097656 16.125 145.625 C16.125 144.965 16.125 144.305 16.125 143.625 C10.49814066 140.81157033 4.39219284 138.21759475 -1.25 142.375 Z " fill="#F5F5F5" transform="translate(82.875,171.375)"/>
</svg>
