<?xml version="1.0" encoding="utf-8"?>
<!-- Generator: Adobe Illustrator 27.9.0, SVG Export Plug-In . SVG Version: 6.00 Build 0)  -->
<svg version="1.1" id="Layer_1" xmlns="http://www.w3.org/2000/svg" xmlns:xlink="http://www.w3.org/1999/xlink" x="0px" y="0px"
	 viewBox="0 0 841.9 595.3" style="enable-background:new 0 0 841.9 595.3;" xml:space="preserve">
<style type="text/css">
	.st0{clip-path:url(#SVGID_00000029027448103747146130000018340587572413689991_);}
	.st1{fill:#F6BD00;}
</style>
<g>
	<defs>
		<rect id="SVGID_1_" width="841.9" height="595.3"/>
	</defs>
	<clipPath id="SVGID_00000021822086864360557030000007120797883500727937_">
		<use xlink:href="#SVGID_1_"  style="overflow:visible;"/>
	</clipPath>
	<g style="clip-path:url(#SVGID_00000021822086864360557030000007120797883500727937_);">
		<path class="st1" d="M481.7,262.6h-56.3c-1.3,0-2.2-1.2-1.9-2.5c0.9-4.3,1.8-8.7,2.8-13c0.2-0.9,1-1.6,1.9-1.6
			c16.9,0,33.9,0,50.8,0c0.9,0,1.7,0.7,1.9,1.6l2.8,13C483.9,261.4,483,262.6,481.7,262.6"/>
		<path class="st1" d="M460.6,305.4l-13.6,1.7c-0.8,0.1-1.6-0.6-1.6-1.5v-36.6c0-0.9,0.8-1.6,1.6-1.5c4.5,0.6,9.1,1.2,13.6,1.9
			c0.7,0.1,1.2,0.7,1.2,1.5v33C461.8,304.7,461.3,305.3,460.6,305.4"/>
		<rect x="522.2" y="245.4" class="st1" width="16.5" height="61.7"/>
		<path class="st1" d="M727.4,245.5H704c-11.9,0-21.6,10.1-21.6,22.5v16.5c0,12.4,9.7,22.5,21.6,22.5h23.4
			c11.9,0,21.6-10.1,21.6-22.5v-16.5C749,255.6,739.3,245.5,727.4,245.5 M733.2,284.5c0,3.4-2.6,6.1-5.9,6.1h-23.5
			c-3.2,0-5.9-2.7-5.9-6.1v-16.4c0-3.4,2.6-6.1,5.9-6.1h23.5c3.2,0,5.9,2.7,5.9,6.1V284.5z"/>
		<path class="st1" d="M250.5,245.5h-23.4c-11.9,0-21.6,10.1-21.6,22.5v16.5c0,12.4,9.7,22.5,21.6,22.5h23.4
			c11.9,0,21.6-10.1,21.6-22.5v-16.5C272.1,255.6,262.4,245.5,250.5,245.5 M256.4,284.5c0,3.4-2.6,6.1-5.9,6.1H227
			c-3.2,0-5.9-2.7-5.9-6.1v-16.4c0-3.4,2.6-6.1,5.9-6.1h23.5c3.2,0,5.9,2.7,5.9,6.1V284.5z"/>
		<rect x="584.1" y="245.4" class="st1" width="16.5" height="61.7"/>
		<path class="st1" d="M627.7,245.5c-8.1,9.2-16.3,18.3-24.4,27.5c-0.5,0.7-1.5,2.4-1.5,4.9c-0.1,2.9,1.3,4.9,1.7,5.5
			c8.1,7.9,16.2,15.9,24.2,23.8h18.5l-26.8-25.5c-0.4-0.5-1.5-2.1-1.5-4.3c0-2.4,1.2-4,1.5-4.4l24.3-27.5L627.7,245.5z"/>
		<path class="st1" d="M334,245.4h-16.6V289c0,10,7.8,18.2,17.4,18.2h33c9.5,0,17.2-8.1,17.2-18v-43.7h-16.2v35.4
			c0,5.3-4.1,9.6-9.2,9.6c-5.5,0-11,0-16.5,0c-5,0-9.1-4.3-9.1-9.5L334,245.4z"/>
		<path class="st1" d="M163.8,259.7h-40.1c-1.8,0-3.2,1.1-3.2,2.5l0,3.9c0,1.5,1.5,2.7,3.4,2.7c7.4,0,14.7,0,22.1,0
			c9.8,0,17.8,6.2,17.8,13.8c0,3,0,5.9,0,8.9c0,8.9-9.2,16.1-20.7,16.1h-39.3c0.1-5,0.2-9.9,0.2-14.9h40c1.8,0,3.2-1.1,3.2-2.5v-4.2
			c0-1.4-1.4-2.5-3.2-2.5h-21.9c-10,0-18.2-6.3-18.2-14.1v-12.7c0-6.4,6.7-11.6,14.9-11.6h44.8V259.7z"/>
		<path class="st1" d="M113,347.2h5.4c1.3,0,2.4-0.4,3.1-1.2c0.8-0.8,1.2-2.1,1.2-3.9v-15.2h4.8v15c0,1.5-0.2,2.8-0.7,3.9
			c-0.4,1.1-1.1,2.1-1.9,2.9c-0.8,0.8-1.8,1.4-2.9,1.8c-1.1,0.4-2.4,0.6-3.8,0.6H113V347.2z"/>
		<path class="st1" d="M162.5,330.7h-8c-1.7,0-2.9,0.3-3.5,1c-0.6,0.7-1,1.7-1,3.2v2h11.1v3.6H150v2.5c0,1.5,0.3,2.5,1,3.2
			c0.6,0.7,1.8,1,3.5,1h8v3.9h-7.8c-3.2,0-5.6-0.7-7.1-2.2c-1.6-1.5-2.3-3.6-2.3-6.4v-7.1c0-2.8,0.8-4.9,2.3-6.4
			c1.6-1.5,3.9-2.2,7.1-2.2h7.8V330.7z"/>
		<path class="st1" d="M184.4,326.8v20c0,0.3,0.1,0.4,0.4,0.4h0.6c0.3,0,0.5-0.1,0.5-0.4l4.1-16.7c0.2-1,0.8-1.8,1.6-2.4
			c0.8-0.6,1.8-0.9,3-0.9h0.7c1.2,0,2.2,0.3,3,0.9c0.8,0.6,1.4,1.4,1.6,2.4l4.1,16.7c0,0.3,0.2,0.4,0.5,0.4h0.6
			c0.3,0,0.4-0.1,0.4-0.4v-20h4.8v20.1c0,1.3-0.4,2.3-1.3,3.1c-0.9,0.8-2.1,1.1-3.5,1.1h-1.3c-1.2,0-2.2-0.3-3-0.9
			c-0.8-0.6-1.4-1.4-1.6-2.4l-4.1-16.8c0-0.3-0.2-0.4-0.5-0.4H195c-0.3,0-0.5,0.1-0.5,0.4l-4.1,16.8c-0.2,1-0.8,1.8-1.6,2.4
			c-0.8,0.6-1.8,0.9-3,0.9h-1.3c-1.5,0-2.6-0.4-3.5-1.1c-0.9-0.8-1.3-1.8-1.3-3.1v-20.1H184.4z"/>
		<path class="st1" d="M245.5,330.7h-8c-1.7,0-2.9,0.3-3.5,1c-0.6,0.7-1,1.7-1,3.2v2h11.1v3.6H233v2.5c0,1.5,0.3,2.5,1,3.2
			c0.6,0.7,1.8,1,3.5,1h8v3.9h-7.8c-3.2,0-5.6-0.7-7.1-2.2c-1.6-1.5-2.3-3.6-2.3-6.4v-7.1c0-2.8,0.8-4.9,2.3-6.4
			c1.6-1.5,3.9-2.2,7.1-2.2h7.8V330.7z"/>
		<path class="st1" d="M272.1,351.1c-3.2,0-5.6-0.7-7.1-2.2c-1.6-1.5-2.3-3.6-2.3-6.4v-15.7h4.8V343c0,1.5,0.3,2.5,1,3.2
			c0.6,0.7,1.8,1,3.5,1h5v3.9H272.1z"/>
		<path class="st1" d="M351.3,326.8v6.7c0,1.3-0.2,2.5-0.6,3.5c-0.4,1-0.9,2-1.6,2.7c-0.7,0.8-1.5,1.4-2.5,1.9c-1,0.5-2,0.8-3.2,1
			v8.5h-4.8v-8.4c-1.2-0.1-2.3-0.5-3.3-0.9c-1-0.5-1.8-1.1-2.5-1.9c-0.7-0.8-1.3-1.7-1.7-2.8c-0.4-1.1-0.6-2.2-0.6-3.6v-6.7h4.8v6.9
			c0,0.9,0.1,1.7,0.4,2.3c0.2,0.7,0.6,1.2,1,1.6c0.4,0.4,0.9,0.7,1.5,0.9c0.6,0.2,1.2,0.3,1.8,0.3h1.7c0.6,0,1.3-0.1,1.8-0.3
			c0.6-0.2,1.1-0.5,1.5-0.9c0.4-0.4,0.8-1,1-1.6c0.2-0.7,0.4-1.4,0.4-2.3v-6.9H351.3z"/>
		<path class="st1" d="M306.5,341.1c2.5,0,4.4-0.6,5.9-1.9c1.3-1.3,2.1-3,2.1-5.2c0-2.2-0.7-4-2.1-5.3c-1.3-1.3-3.3-1.9-5.9-1.9
			h-7.6c-1.3,0-2.5,0.5-3.5,1.3c-0.7,0.6-1.1,1.3-1.3,2.1h5.2h7.2c1.5,0,2.5,0.4,3.2,0.9c0.7,0.6,1.1,1.5,1.1,3
			c0,1.4-0.3,2.5-1.1,3.1c-0.7,0.6-1.7,0.9-3.2,0.9h-3.9c-0.7,0-1.3,0.2-2,0.6c-0.5,0.4-0.9,0.8-1.2,1.4c-0.1,0.5-0.3,1.1-0.1,1.8
			c0.1,0.7,0.5,1.2,1.2,1.7l8.7,7.6h5.4l-11.6-9.8L306.5,341.1z"/>
		<rect x="294.1" y="330.2" class="st1" width="3.7" height="20.8"/>
	</g>
</g>
</svg>
